<svg xmlns="http://www.w3.org/2000/svg" xmlns:xlink="http://www.w3.org/1999/xlink" xmlns:lucid="lucid" width="540" height="420"><g transform="translate(-200 -300)" lucid:page-tab-id="2X91rSeqy3aH"><path d="M236 320h164l-16 60H220z" stroke="#000" stroke-width="2" fill="#e5e5e5"/><use xlink:href="#a" transform="matrix(1,0,0,1,225,325) translate(61.84142578125 32.3330078125)"/><use xlink:href="#b" transform="matrix(1,0,0,1,225,325) translate(98.10509765625 32.3330078125)"/><path d="M720 550c0 5.52-31.34 10-70 10s-70-4.48-70-10v-80c0-5.52 31.34-10 70-10s70 4.48 70 10z" stroke="#000" stroke-width="2" fill="#99d2f2"/><path d="M720 470c0 5.52-31.34 10-70 10s-70-4.48-70-10" stroke="#000" stroke-width="2" fill="none"/><use xlink:href="#c" transform="matrix(1,0,0,1,585,485) translate(33.19677734375 40.7705078125)"/><path d="M236 400h164l-16 60H220z" stroke="#000" stroke-width="2" fill="#e5e5e5"/><use xlink:href="#a" transform="matrix(1,0,0,1,225,405) translate(61.84142578125 32.3330078125)"/><use xlink:href="#d" transform="matrix(1,0,0,1,225,405) translate(98.10509765625 32.3330078125)"/><path d="M394.03 350H480v160h80.5" stroke="#000" stroke-width="2" fill="none"/><path d="M394.06 351h-1.3l.54-2h.76z"/><path d="M575.76 510l-14.26 4.64v-9.28z" stroke="#000" stroke-width="2"/><path d="M394.03 430H480v80h80.5" stroke="#000" stroke-width="2" fill="none"/><path d="M394.06 431h-1.3l.54-2h.76z"/><path d="M575.76 510l-14.26 4.64v-9.28z" stroke="#000" stroke-width="2"/><path d="M380 570c0 5.52-31.34 10-70 10s-70-4.48-70-10v-80c0-5.52 31.34-10 70-10s70 4.48 70 10z" stroke="#000" stroke-width="2" fill="#c1e4f7"/><path d="M380 490c0 5.52-31.34 10-70 10s-70-4.48-70-10" stroke="#000" stroke-width="2" fill="none"/><use xlink:href="#e" transform="matrix(1,0,0,1,245,505) translate(25.8271484375 40.7705078125)"/><use xlink:href="#b" transform="matrix(1,0,0,1,245,505) translate(94.109375 40.7705078125)"/><path d="M380 690c0 5.52-31.34 10-70 10s-70-4.48-70-10v-80c0-5.52 31.34-10 70-10s70 4.48 70 10z" stroke="#000" stroke-width="2" fill="#c1e4f7"/><path d="M380 610c0 5.52-31.34 10-70 10s-70-4.48-70-10" stroke="#000" stroke-width="2" fill="none"/><use xlink:href="#e" transform="matrix(1,0,0,1,245,625) translate(25.8271484375 40.7705078125)"/><use xlink:href="#d" transform="matrix(1,0,0,1,245,625) translate(94.109375 40.7705078125)"/><path d="M382 530h98v-20h80.5" stroke="#000" stroke-width="2" fill="none"/><path d="M382.03 531H381v-2h1.03z"/><path d="M575.76 510l-14.26 4.64v-9.28z" stroke="#000" stroke-width="2"/><path d="M382 650h98V510h80.5" stroke="#000" stroke-width="2" fill="none"/><path d="M382.03 651H381v-2h1.03z"/><path d="M575.76 510l-14.26 4.64v-9.28z" stroke="#000" stroke-width="2"/><defs><path d="M272-1237c3-115-76-146-194-139v-86h1032l10 358h-106c-6-145-43-256-199-256H479v592h494v100H479v435C472-96 576-78 715-86V0H78v-86c117 6 194-21 194-137v-1014" id="f"/><path d="M434-233c-3 120 73 154 195 147V0H47v-86c118 6 195-21 195-137v-649c2-108-66-143-174-140v-86h366v865zM330-1303c-79 0-117-45-117-127s37-126 117-126c79 0 116 46 116 126 0 81-37 127-116 127" id="g"/><path d="M414-233c-4 120 72 154 194 147V0H27v-86c122 7 194-28 194-147v-1098c3-115-76-146-194-139v-86h387v1323" id="h"/><path d="M786-645c-4-191-36-363-223-363-76 0-134 30-175 92s-66 152-73 271h471zm123 393c43 21 51 90 17 136C862-29 744 20 588 20c-331 0-471-225-475-561-4-348 134-577 454-577 327 0 443 231 426 583H311c7 242 67 426 305 426 140 0 234-60 293-143" id="i"/><g id="a"><use transform="matrix(0.0087890625,0,0,0.0087890625,0,0)" xlink:href="#f"/><use transform="matrix(0.0087890625,0,0,0.0087890625,10.6171875,0)" xlink:href="#g"/><use transform="matrix(0.0087890625,0,0,0.0087890625,16.3740234375,0)" xlink:href="#h"/><use transform="matrix(0.0087890625,0,0,0.0087890625,21.955078125,0)" xlink:href="#i"/></g><path d="M709-233C699-82 828-79 977-86V0H197v-86h137c108 3 168-38 168-147v-1076c-64 75-120 150-204 197-78 44-169-10-163-94 181-48 304-168 443-264h131v1237" id="j"/><use transform="matrix(0.0087890625,0,0,0.0087890625,0,0)" xlink:href="#j" id="b"/><path d="M705-1462c450 9 667 274 667 729S1160 0 705 0H78v-86c122 7 194-27 194-147v-1004c3-115-76-146-194-139v-86h627zm440 729c2-374-134-623-486-627H479v1256h178c362-7 486-260 488-629" id="k"/><path d="M467-106c176 0 267-107 272-285v-166c-189 6-378 9-423 154-10 31-15 66-15 106 0 123 47 191 166 191zm272-535c5-199 13-375-190-375-142 0-190 83-187 223-106-2-174-27-174-129 0-169 191-191 369-196 250-7 375 104 375 354v531c-3 100 32 153 133 147V0H788l-32-176h-17C664-76 596 23 420 20 213 16 102-97 102-307c0-109 41-186 116-242 100-75 325-89 521-92" id="l"/><path d="M387-291c-2 124 47 200 156 203 51 1 88-6 131-14v90C626 8 560 18 492 20 278 25 195-83 195-297v-684H39v-82c170-8 224-133 254-287h94v252h268v117H387v690" id="m"/><path d="M834-301C834-70 665 20 430 20 250 20 92-26 92-197c0-88 47-135 129-141 1 157 63 257 221 260 156 3 257-97 214-252-47-85-142-109-240-157-153-75-310-122-310-340 0-212 169-289 386-289 130 0 232 36 280 116 31 53 24 126-20 162-26 22-62 33-109 33 0-130-49-217-176-217-120 1-195 48-195 164 0 149 143 163 254 217 154 74 308 124 308 340" id="n"/><g id="c"><use transform="matrix(0.0087890625,0,0,0.0087890625,0,0)" xlink:href="#k"/><use transform="matrix(0.0087890625,0,0,0.0087890625,13.0869140625,0)" xlink:href="#l"/><use transform="matrix(0.0087890625,0,0,0.0087890625,23.044921875,0)" xlink:href="#m"/><use transform="matrix(0.0087890625,0,0,0.0087890625,29.3818359375,0)" xlink:href="#l"/><use transform="matrix(0.0087890625,0,0,0.0087890625,39.515625,0)" xlink:href="#n"/><use transform="matrix(0.0087890625,0,0,0.0087890625,47.63671875,0)" xlink:href="#i"/><use transform="matrix(0.0087890625,0,0,0.0087890625,57.26953125,0)" xlink:href="#m"/></g><path d="M528-1483c243 0 416 104 416 342 0 196-101 308-198 428-150 186-330 369-490 549h473c127 2 162-84 180-190h86L985 0H104v-150c155-184 338-374 480-565 86-116 153-219 153-405 0-153-57-260-209-260-177 0-225 129-225 305-102 0-176-31-176-133 0-206 182-275 401-275" id="o"/><use transform="matrix(0.0087890625,0,0,0.0087890625,0,0)" xlink:href="#o" id="d"/><g id="e"><use transform="matrix(0.0087890625,0,0,0.0087890625,0,0)" xlink:href="#k"/><use transform="matrix(0.0087890625,0,0,0.0087890625,13.0869140625,0)" xlink:href="#l"/><use transform="matrix(0.0087890625,0,0,0.0087890625,23.044921875,0)" xlink:href="#m"/><use transform="matrix(0.0087890625,0,0,0.0087890625,29.3818359375,0)" xlink:href="#l"/><use transform="matrix(0.0087890625,0,0,0.0087890625,39.515625,0)" xlink:href="#n"/><use transform="matrix(0.0087890625,0,0,0.0087890625,47.63671875,0)" xlink:href="#i"/><use transform="matrix(0.0087890625,0,0,0.0087890625,57.26953125,0)" xlink:href="#m"/></g></defs></g></svg>