<svg xmlns="http://www.w3.org/2000/svg" xmlns:xlink="http://www.w3.org/1999/xlink" xmlns:lucid="lucid" width="1160" height="440"><g transform="translate(-140 -180)" lucid:page-tab-id="0_0"><path d="M160 200h1120v400H160z" fill-opacity="0"/><path d="M196 220h164l-16 60H180z" stroke="#000" stroke-width="2" fill="#e5e5e5"/><use xlink:href="#a" transform="matrix(1,0,0,1,185,225) translate(23.846308593750003 32.3330078125)"/><path d="M640 330c0 5.52-31.34 10-70 10s-70-4.48-70-10v-80c0-5.52 31.34-10 70-10s70 4.48 70 10z" stroke="#000" stroke-width="2" fill="#c1e4f7"/><path d="M640 250c0 5.52-31.34 10-70 10s-70-4.48-70-10" stroke="#000" stroke-width="2" fill="none"/><use xlink:href="#b" transform="matrix(1,0,0,1,505,265) translate(16.2294921875 29.8330078125)"/><use xlink:href="#c" transform="matrix(1,0,0,1,505,265) translate(67.7685546875 29.8330078125)"/><use xlink:href="#d" transform="matrix(1,0,0,1,505,265) translate(34.21630859375 50.7861328125)"/><path d="M196 300h164l-16 60H180z" stroke="#000" stroke-width="2" fill="#e5e5e5"/><use xlink:href="#e" transform="matrix(1,0,0,1,185,305) translate(23.846308593750003 32.3330078125)"/><path d="M200 430h140v80H200z" stroke="#000" stroke-width="2" fill="#ffbbb1"/><use xlink:href="#f" transform="matrix(1,0,0,1,205,435) translate(21.494140625 29.8330078125)"/><use xlink:href="#g" transform="matrix(1,0,0,1,205,435) translate(27.65087890625 50.7861328125)"/><path d="M640 510c0 5.52-31.34 10-70 10s-70-4.48-70-10v-80c0-5.52 31.34-10 70-10s70 4.48 70 10z" stroke="#000" stroke-width="2" fill="#c1e4f7"/><path d="M640 430c0 5.52-31.34 10-70 10s-70-4.48-70-10" stroke="#000" stroke-width="2" fill="none"/><use xlink:href="#h" transform="matrix(1,0,0,1,505,445) translate(20.49658203125 29.8330078125)"/><use xlink:href="#i" transform="matrix(1,0,0,1,505,445) translate(8.87744140625 50.7861328125)"/><use xlink:href="#d" transform="matrix(1,0,0,1,505,445) translate(59.55517578125 50.7861328125)"/><path d="M354.03 250h72v40h54.47" stroke="#000" stroke-width="2" fill="none"/><path d="M354.06 251h-1.3l.54-2h.76z"/><path d="M495.76 290l-14.26 4.64v-9.28z" stroke="#000" stroke-width="2"/><path d="M354.03 330h72v-40h54.47" stroke="#000" stroke-width="2" fill="none"/><path d="M354.06 331h-1.3l.54-2h.76z"/><path d="M495.76 290l-14.26 4.64v-9.28z" stroke="#000" stroke-width="2"/><path d="M342 470h138.5" stroke="#000" stroke-width="2" fill="none"/><path d="M342.03 471H341v-2h1.03z"/><path d="M495.76 470l-14.26 4.64v-9.28z" stroke="#000" stroke-width="2"/><path d="M920 430c0 5.52-31.34 10-70 10s-70-4.48-70-10v-80c0-5.52 31.34-10 70-10s70 4.48 70 10z" stroke="#000" stroke-width="2" fill="#c1e4f7"/><path d="M920 350c0 5.52-31.34 10-70 10s-70-4.48-70-10" stroke="#000" stroke-width="2" fill="none"/><use xlink:href="#j" transform="matrix(1,0,0,1,785,365) translate(8.451171875 40.7705078125)"/><use xlink:href="#d" transform="matrix(1,0,0,1,785,365) translate(59.9814453125 40.7705078125)"/><path d="M642 290h68v100h50.5" stroke="#000" stroke-width="2" fill="none"/><path d="M642.03 291H641v-2h1.03z"/><path d="M775.76 390l-14.26 4.64v-9.28z" stroke="#000" stroke-width="2"/><path d="M642 470h68v-80h50.5" stroke="#000" stroke-width="2" fill="none"/><path d="M642.03 471H641v-2h1.03z"/><path d="M775.76 390l-14.26 4.64v-9.28z" stroke="#000" stroke-width="2"/><path d="M340 320h160v60H340z" stroke="#000" stroke-opacity="0" stroke-width="2" fill="#fff" fill-opacity="0"/><use xlink:href="#k" transform="matrix(1,0,0,1,345,325) translate(13.04150390625 32.3330078125)"/><path d="M340 460h160v60H340z" stroke="#000" stroke-opacity="0" stroke-width="2" fill="#fff" fill-opacity="0"/><use xlink:href="#l" transform="matrix(1,0,0,1,345,465) translate(2.77587890625 32.3330078125)"/><path d="M640 460h140v60H640z" stroke="#000" stroke-opacity="0" stroke-width="2" fill="#fff" fill-opacity="0"/><use xlink:href="#k" transform="matrix(1,0,0,1,645,465) translate(3.04150390625 32.3330078125)"/><path d="M940 250h140v80H940z" stroke="#000" stroke-width="2" fill="#ffbbb1"/><use xlink:href="#m" transform="matrix(1,0,0,1,945,255) translate(22.302734375 21.0830078125)"/><use xlink:href="#n" transform="matrix(1,0,0,1,945,255) translate(29.3603515625 42.0361328125)"/><use xlink:href="#g" transform="matrix(1,0,0,1,945,255) translate(27.65087890625 62.9892578125)"/><path d="M1240 430c0 5.52-31.34 10-70 10s-70-4.48-70-10v-80c0-5.52 31.34-10 70-10s70 4.48 70 10z" stroke="#000" stroke-width="2" fill="#99d2f2"/><path d="M1240 350c0 5.52-31.34 10-70 10s-70-4.48-70-10" stroke="#000" stroke-width="2" fill="none"/><use xlink:href="#o" transform="matrix(1,0,0,1,1105,365) translate(10.02880859375 40.7705078125)"/><use xlink:href="#p" transform="matrix(1,0,0,1,1105,365) translate(58.40380859375 40.7705078125)"/><path d="M922 390h158.5" stroke="#000" stroke-width="2" fill="none"/><path d="M922.03 391H921v-2h1.03z"/><path d="M1095.76 390l-14.26 4.64v-9.28z" stroke="#000" stroke-width="2"/><path d="M1010 332v58h70.5" stroke="#000" stroke-width="2" fill="none"/><path d="M1011 332.03h-2V331h2z"/><path d="M1095.76 390l-14.26 4.64v-9.28z" stroke="#000" stroke-width="2"/><path d="M940 380h140v60H940z" stroke="#000" stroke-opacity="0" stroke-width="2" fill="#fff" fill-opacity="0"/><g><use xlink:href="#q" transform="matrix(1,0,0,1,945,385) translate(2.86572265625 32.3330078125)"/></g><path d="M160 540h1120v60H160z" stroke="#000" stroke-opacity="0" stroke-width="2" fill="#fff" fill-opacity="0"/><g><use xlink:href="#r" transform="matrix(1,0,0,1,165,545) translate(433.66259765625006 32.33300781249999)"/><use xlink:href="#s" transform="matrix(1,0,0,1,165,545) translate(462.64013671875006 32.33300781249999)"/><use xlink:href="#t" transform="matrix(1,0,0,1,165,545) translate(540.02783203125 32.33300781249999)"/><use xlink:href="#u" transform="matrix(1,0,0,1,165,545) translate(606.27099609375 32.33300781249999)"/></g><defs><path d="M934-1279c156 241 159 841 0 1092C859-69 752 20 573 20 184 20 92-334 92-735c0-318 66-577 264-695 114-68 314-71 428 0 59 37 108 87 150 151zm-486-51c-167 147-156 561-129 868 13 142 51 258 129 328 64 58 188 58 251 0 125-116 141-350 141-599s-14-481-140-597c-62-58-189-56-252 0" id="v"/><path d="M950 291H-10V170h960v121" id="w"/><path d="M834-301C834-70 665 20 430 20 250 20 92-26 92-197c0-88 47-135 129-141 1 157 63 257 221 260 156 3 257-97 214-252-47-85-142-109-240-157-153-75-310-122-310-340 0-212 169-289 386-289 130 0 232 36 280 116 31 53 24 126-20 162-26 22-62 33-109 33 0-130-49-217-176-217-120 1-195 48-195 164 0 149 143 163 254 217 154 74 308 124 308 340" id="x"/><path d="M467-106c176 0 267-107 272-285v-166c-189 6-378 9-423 154-10 31-15 66-15 106 0 123 47 191 166 191zm272-535c5-199 13-375-190-375-142 0-190 83-187 223-106-2-174-27-174-129 0-169 191-191 369-196 250-7 375 104 375 354v531c-3 100 32 153 133 147V0H788l-32-176h-17C664-76 596 23 420 20 213 16 102-97 102-307c0-109 41-186 116-242 100-75 325-89 521-92" id="y"/><path d="M434-223c-3 108 66 141 174 137V0H57v-86c121 8 185-28 185-147v-639c3-106-58-144-164-140v-86h321l27 166h10c60-112 141-188 309-186 158 2 252 69 297 186h17c61-114 150-188 321-186 240 3 333 155 334 401v484c-3 110 54 152 164 147V0h-356v-707c0-166-49-282-215-280-172 2-228 132-228 305v449c-3 110 54 152 164 147V0H887v-707c0-166-49-282-215-280-182 3-238 148-238 332v432" id="z"/><path d="M946-553c0-230-32-430-254-434-242-4-278 193-278 436s40 440 280 440c221 0 252-212 252-442zm-219-565c321 0 418 237 418 567 0 331-96 571-418 571-163 0-254-75-313-180h-8c7 140 10 280 8 428-2 108 66 142 174 138v86H37v-86c118 6 184-32 184-148V-872c3-116-76-146-194-140v-86h358l21 185h8c57-116 142-205 313-205" id="A"/><path d="M414-233c-4 120 72 154 194 147V0H27v-86c122 7 194-28 194-147v-1098c3-115-76-146-194-139v-86h387v1323" id="B"/><path d="M786-645c-4-191-36-363-223-363-76 0-134 30-175 92s-66 152-73 271h471zm123 393c43 21 51 90 17 136C862-29 744 20 588 20c-331 0-471-225-475-561-4-348 134-577 454-577 327 0 443 231 426 583H311c7 242 67 426 305 426 140 0 234-60 293-143" id="C"/><path d="M709-233C699-82 828-79 977-86V0H197v-86h137c108 3 168-38 168-147v-1076c-64 75-120 150-204 197-78 44-169-10-163-94 181-48 304-168 443-264h131v1237" id="D"/><path d="M293 14c-88 0-129-49-129-139 0-91 41-139 129-139 87 0 129 49 129 139-1 89-42 139-129 139" id="E"/><path d="M434-233c-3 120 73 154 195 147V0H47v-86c118 6 195-21 195-137v-649c2-108-66-143-174-140v-86h366v865zM330-1303c-79 0-117-45-117-127s37-126 117-126c79 0 116 46 116 126 0 81-37 127-116 127" id="F"/><path d="M434-223c-3 108 66 141 174 137V0H57v-86c118 6 185-31 185-147v-639c2-108-66-143-174-140v-86h331l27 166h10c63-113 148-188 320-186 244 3 343 152 344 401v484c-4 110 54 152 164 147V0H907v-707c0-170-55-282-225-280-187 3-248 145-248 332v432" id="G"/><g id="a"><use transform="matrix(0.0087890625,0,0,0.0087890625,0,0)" xlink:href="#v"/><use transform="matrix(0.0087890625,0,0,0.0087890625,10.0634765625,0)" xlink:href="#v"/><use transform="matrix(0.0087890625,0,0,0.0087890625,20.126953125,0)" xlink:href="#w"/><use transform="matrix(0.0087890625,0,0,0.0087890625,28.388671875,0)" xlink:href="#x"/><use transform="matrix(0.0087890625,0,0,0.0087890625,36.509765625,0)" xlink:href="#y"/><use transform="matrix(0.0087890625,0,0,0.0087890625,46.6435546875,0)" xlink:href="#z"/><use transform="matrix(0.0087890625,0,0,0.0087890625,63.474609375,0)" xlink:href="#A"/><use transform="matrix(0.0087890625,0,0,0.0087890625,74.5224609375,0)" xlink:href="#B"/><use transform="matrix(0.0087890625,0,0,0.0087890625,80.103515625,0)" xlink:href="#C"/><use transform="matrix(0.0087890625,0,0,0.0087890625,89.736328125,0)" xlink:href="#D"/><use transform="matrix(0.0087890625,0,0,0.0087890625,99.7998046875,0)" xlink:href="#E"/><use transform="matrix(0.0087890625,0,0,0.0087890625,104.9501953125,0)" xlink:href="#F"/><use transform="matrix(0.0087890625,0,0,0.0087890625,110.70703125,0)" xlink:href="#G"/></g><path d="M1010-391c0 288-209 411-504 411-227 0-400-72-408-288-3-85 58-140 148-138 13 184 83 323 276 326 176 3 296-86 293-258-4-208-164-249-317-319-197-90-377-181-377-455 0-256 189-371 448-371 165 0 292 46 357 143 39 57 33 148-18 186-30 22-68 34-117 34-4-156-72-260-230-260-155 0-250 80-250 233 0 217 160 262 318 332 152 68 291 135 355 283 17 42 26 88 26 141" id="H"/><path d="M387-291c-2 124 47 200 156 203 51 1 88-6 131-14v90C626 8 560 18 492 20 278 25 195-83 195-297v-684H39v-82c170-8 224-133 254-287h94v252h268v117H387v690" id="I"/><path d="M893-256c39 28 47 103 13 150C845-22 730 20 580 20c-332 0-467-220-467-563 0-349 119-575 456-575 140 0 259 39 325 116 44 51 42 161-14 193-31 18-76 29-137 29-1-134-38-239-174-236-232 6-258 224-258 471 0 264 65 427 310 432 127 2 227-62 272-143" id="J"/><g id="b"><use transform="matrix(0.0087890625,0,0,0.0087890625,0,0)" xlink:href="#H"/><use transform="matrix(0.0087890625,0,0,0.0087890625,9.615234375,0)" xlink:href="#I"/><use transform="matrix(0.0087890625,0,0,0.0087890625,15.9521484375,0)" xlink:href="#y"/><use transform="matrix(0.0087890625,0,0,0.0087890625,25.91015625,0)" xlink:href="#I"/><use transform="matrix(0.0087890625,0,0,0.0087890625,32.2470703125,0)" xlink:href="#F"/><use transform="matrix(0.0087890625,0,0,0.0087890625,38.00390625,0)" xlink:href="#J"/></g><path d="M887-864c2-112-62-153-174-148v-86h366v875c-3 108 66 141 174 137V0H928l-27-166h-10C829-49 733 21 559 20c-245-1-338-153-338-401v-491c2-108-66-143-174-140v-86h367v707c-1 168 46 283 215 280 191-4 258-139 258-331v-422" id="K"/><g id="c"><use transform="matrix(0.0087890625,0,0,0.0087890625,0,0)" xlink:href="#F"/><use transform="matrix(0.0087890625,0,0,0.0087890625,5.7568359375,0)" xlink:href="#G"/><use transform="matrix(0.0087890625,0,0,0.0087890625,17.19140625,0)" xlink:href="#A"/><use transform="matrix(0.0087890625,0,0,0.0087890625,28.2392578125,0)" xlink:href="#K"/><use transform="matrix(0.0087890625,0,0,0.0087890625,39.6650390625,0)" xlink:href="#I"/></g><path d="M844-1331c2-112-71-145-185-139v-86h377v1331c-2 112 71 145 185 139V0H874l-22-184h-8C786-68 701 20 530 20c-321 0-417-237-417-567 0-331 95-571 417-571 163 0 254 76 314 180h12c-10-128-14-255-12-393zM563-987c-219 0-252 212-252 442 0 145 20 254 59 326s104 108 195 108c242 2 279-192 279-436s-41-440-281-440" id="L"/><g id="d"><use transform="matrix(0.0087890625,0,0,0.0087890625,0,0)" xlink:href="#L"/><use transform="matrix(0.0087890625,0,0,0.0087890625,11.0478515625,0)" xlink:href="#y"/><use transform="matrix(0.0087890625,0,0,0.0087890625,21.005859375,0)" xlink:href="#I"/><use transform="matrix(0.0087890625,0,0,0.0087890625,27.3427734375,0)" xlink:href="#y"/><use transform="matrix(0.0087890625,0,0,0.0087890625,37.4765625,0)" xlink:href="#x"/><use transform="matrix(0.0087890625,0,0,0.0087890625,45.59765625,0)" xlink:href="#C"/><use transform="matrix(0.0087890625,0,0,0.0087890625,55.23046875,0)" xlink:href="#I"/></g><path d="M528-1483c243 0 416 104 416 342 0 196-101 308-198 428-150 186-330 369-490 549h473c127 2 162-84 180-190h86L985 0H104v-150c155-184 338-374 480-565 86-116 153-219 153-405 0-153-57-260-209-260-177 0-225 129-225 305-102 0-176-31-176-133 0-206 182-275 401-275" id="M"/><g id="e"><use transform="matrix(0.0087890625,0,0,0.0087890625,0,0)" xlink:href="#v"/><use transform="matrix(0.0087890625,0,0,0.0087890625,10.0634765625,0)" xlink:href="#v"/><use transform="matrix(0.0087890625,0,0,0.0087890625,20.126953125,0)" xlink:href="#w"/><use transform="matrix(0.0087890625,0,0,0.0087890625,28.388671875,0)" xlink:href="#x"/><use transform="matrix(0.0087890625,0,0,0.0087890625,36.509765625,0)" xlink:href="#y"/><use transform="matrix(0.0087890625,0,0,0.0087890625,46.6435546875,0)" xlink:href="#z"/><use transform="matrix(0.0087890625,0,0,0.0087890625,63.474609375,0)" xlink:href="#A"/><use transform="matrix(0.0087890625,0,0,0.0087890625,74.5224609375,0)" xlink:href="#B"/><use transform="matrix(0.0087890625,0,0,0.0087890625,80.103515625,0)" xlink:href="#C"/><use transform="matrix(0.0087890625,0,0,0.0087890625,89.736328125,0)" xlink:href="#M"/><use transform="matrix(0.0087890625,0,0,0.0087890625,99.7998046875,0)" xlink:href="#E"/><use transform="matrix(0.0087890625,0,0,0.0087890625,104.9501953125,0)" xlink:href="#F"/><use transform="matrix(0.0087890625,0,0,0.0087890625,110.70703125,0)" xlink:href="#G"/></g><path d="M1274-74c-132 61-266 94-453 94-474 0-704-280-704-753 0-356 149-589 406-695 216-89 625-74 735 84 44 64 27 162-28 196-34 21-79 38-134 38-6-168-97-264-271-264-372 0-481 264-481 641 0 387 125 639 510 637 76 0 155-7 213-25v-330c2-109-68-142-176-139v-86h532v86c-105-6-149 43-149 148v368" id="N"/><path d="M434-223C430-95 529-79 659-86V0H68v-86c112 4 174-35 174-147v-639c2-108-66-143-174-140v-86h315l39 203h10c50-120 106-223 281-223 151 0 257 68 211 208-21 64-90 87-181 87-2-101-16-160-108-160-128 0-157 140-183 255-33 148-12 333-18 505" id="O"/><path d="M594-1118c338 0 472 222 475 567 2 360-143 571-481 571S115-205 113-551c-2-359 142-567 481-567zm-4 108c-241 0-279 212-279 459 0 249 39 465 281 465s278-216 278-465c0-248-38-459-280-459" id="P"/><g id="f"><use transform="matrix(0.0087890625,0,0,0.0087890625,0,0)" xlink:href="#N"/><use transform="matrix(0.0087890625,0,0,0.0087890625,12.849609375,0)" xlink:href="#C"/><use transform="matrix(0.0087890625,0,0,0.0087890625,22.482421875,0)" xlink:href="#G"/><use transform="matrix(0.0087890625,0,0,0.0087890625,34.0927734375,0)" xlink:href="#C"/><use transform="matrix(0.0087890625,0,0,0.0087890625,43.7255859375,0)" xlink:href="#O"/><use transform="matrix(0.0087890625,0,0,0.0087890625,52.20703125,0)" xlink:href="#y"/><use transform="matrix(0.0087890625,0,0,0.0087890625,62.1650390625,0)" xlink:href="#I"/><use transform="matrix(0.0087890625,0,0,0.0087890625,68.1416015625,0)" xlink:href="#P"/><use transform="matrix(0.0087890625,0,0,0.0087890625,78.5302734375,0)" xlink:href="#O"/></g><path d="M479-223C473-90 582-80 715-86V0H78v-86c122 7 194-27 194-147v-1004c3-115-76-146-194-139v-86h575c309 2 504 125 504 428 0 321-213 462-549 465H479v346zm457-803c0-225-92-342-318-338H479v698h109c246 7 348-114 348-360" id="Q"/><path d="M956-1161c125-12 164 158 62 205-14 6-30 8-49 8 9-84-106-83-156-45 48 62 81 134 80 248-2 265-188 381-475 346-48 26-98 54-99 125-1 68 58 77 127 77h232c215 1 338 97 338 306 0 294-237 379-543 383-249 3-426-81-426-299C47 28 162-41 303-70c-62-29-113-79-113-168 0-105 57-142 134-192-112-50-185-152-185-309 0-249 134-379 385-379 97 0 179 25 234 67 49-50 103-100 198-110zM438-14c-139-3-225 52-225 194 0 158 102 212 264 211 212-1 363-46 371-248C856-58 624-10 438-14zm78-1004c-150 0-184 109-184 273 0 159 39 250 186 253 149 3 184-105 182-256-2-165-33-270-184-270" id="R"/><g id="g"><use transform="matrix(0.0087890625,0,0,0.0087890625,0,0)" xlink:href="#Q"/><use transform="matrix(0.0087890625,0,0,0.0087890625,10.8720703125,0)" xlink:href="#O"/><use transform="matrix(0.0087890625,0,0,0.0087890625,19.177734375,0)" xlink:href="#P"/><use transform="matrix(0.0087890625,0,0,0.0087890625,29.390625,0)" xlink:href="#R"/><use transform="matrix(0.0087890625,0,0,0.0087890625,39.076171875,0)" xlink:href="#O"/><use transform="matrix(0.0087890625,0,0,0.0087890625,47.5576171875,0)" xlink:href="#y"/><use transform="matrix(0.0087890625,0,0,0.0087890625,57.69140625,0)" xlink:href="#z"/></g><g id="h"><use transform="matrix(0.0087890625,0,0,0.0087890625,0,0)" xlink:href="#N"/><use transform="matrix(0.0087890625,0,0,0.0087890625,12.849609375,0)" xlink:href="#C"/><use transform="matrix(0.0087890625,0,0,0.0087890625,22.482421875,0)" xlink:href="#G"/><use transform="matrix(0.0087890625,0,0,0.0087890625,34.0927734375,0)" xlink:href="#C"/><use transform="matrix(0.0087890625,0,0,0.0087890625,43.7255859375,0)" xlink:href="#O"/><use transform="matrix(0.0087890625,0,0,0.0087890625,52.20703125,0)" xlink:href="#y"/><use transform="matrix(0.0087890625,0,0,0.0087890625,62.1650390625,0)" xlink:href="#I"/><use transform="matrix(0.0087890625,0,0,0.0087890625,68.326171875,0)" xlink:href="#C"/><use transform="matrix(0.0087890625,0,0,0.0087890625,77.958984375,0)" xlink:href="#L"/></g><g id="i"><use transform="matrix(0.0087890625,0,0,0.0087890625,0,0)" xlink:href="#F"/><use transform="matrix(0.0087890625,0,0,0.0087890625,5.7568359375,0)" xlink:href="#G"/><use transform="matrix(0.0087890625,0,0,0.0087890625,17.19140625,0)" xlink:href="#A"/><use transform="matrix(0.0087890625,0,0,0.0087890625,28.2392578125,0)" xlink:href="#K"/><use transform="matrix(0.0087890625,0,0,0.0087890625,39.6650390625,0)" xlink:href="#I"/></g><path d="M479-233c-3 120 73 154 195 147V0H78v-86c122 7 194-27 194-147v-996c4-120-72-154-194-147v-86h596v86c-122-7-195 27-195 147v996" id="S"/><g id="j"><use transform="matrix(0.0087890625,0,0,0.0087890625,0,0)" xlink:href="#S"/><use transform="matrix(0.0087890625,0,0,0.0087890625,6.609375,0)" xlink:href="#G"/><use transform="matrix(0.0087890625,0,0,0.0087890625,18.0439453125,0)" xlink:href="#A"/><use transform="matrix(0.0087890625,0,0,0.0087890625,29.091796875,0)" xlink:href="#K"/><use transform="matrix(0.0087890625,0,0,0.0087890625,40.517578125,0)" xlink:href="#I"/></g><g id="k"><use transform="matrix(0.0087890625,0,0,0.0087890625,0,0)" xlink:href="#L"/><use transform="matrix(0.0087890625,0,0,0.0087890625,11.0478515625,0)" xlink:href="#y"/><use transform="matrix(0.0087890625,0,0,0.0087890625,21.005859375,0)" xlink:href="#I"/><use transform="matrix(0.0087890625,0,0,0.0087890625,27.3427734375,0)" xlink:href="#y"/><use transform="matrix(0.0087890625,0,0,0.0087890625,37.4765625,0)" xlink:href="#x"/><use transform="matrix(0.0087890625,0,0,0.0087890625,45.59765625,0)" xlink:href="#C"/><use transform="matrix(0.0087890625,0,0,0.0087890625,55.23046875,0)" xlink:href="#I"/><use transform="matrix(0.0087890625,0,0,0.0087890625,61.5673828125,0)" xlink:href="#w"/><use transform="matrix(0.0087890625,0,0,0.0087890625,69.8291015625,0)" xlink:href="#z"/><use transform="matrix(0.0087890625,0,0,0.0087890625,86.8359375,0)" xlink:href="#C"/><use transform="matrix(0.0087890625,0,0,0.0087890625,96.46875,0)" xlink:href="#O"/><use transform="matrix(0.0087890625,0,0,0.0087890625,104.7744140625,0)" xlink:href="#R"/><use transform="matrix(0.0087890625,0,0,0.0087890625,114.2841796875,0)" xlink:href="#C"/></g><g id="l"><use transform="matrix(0.0087890625,0,0,0.0087890625,0,0)" xlink:href="#L"/><use transform="matrix(0.0087890625,0,0,0.0087890625,11.0478515625,0)" xlink:href="#y"/><use transform="matrix(0.0087890625,0,0,0.0087890625,21.005859375,0)" xlink:href="#I"/><use transform="matrix(0.0087890625,0,0,0.0087890625,27.3427734375,0)" xlink:href="#y"/><use transform="matrix(0.0087890625,0,0,0.0087890625,37.4765625,0)" xlink:href="#x"/><use transform="matrix(0.0087890625,0,0,0.0087890625,45.59765625,0)" xlink:href="#C"/><use transform="matrix(0.0087890625,0,0,0.0087890625,55.23046875,0)" xlink:href="#I"/><use transform="matrix(0.0087890625,0,0,0.0087890625,61.5673828125,0)" xlink:href="#w"/><use transform="matrix(0.0087890625,0,0,0.0087890625,69.8291015625,0)" xlink:href="#R"/><use transform="matrix(0.0087890625,0,0,0.0087890625,79.3388671875,0)" xlink:href="#C"/><use transform="matrix(0.0087890625,0,0,0.0087890625,88.9716796875,0)" xlink:href="#G"/><use transform="matrix(0.0087890625,0,0,0.0087890625,100.58203125,0)" xlink:href="#C"/><use transform="matrix(0.0087890625,0,0,0.0087890625,110.21484375,0)" xlink:href="#O"/><use transform="matrix(0.0087890625,0,0,0.0087890625,118.6962890625,0)" xlink:href="#y"/><use transform="matrix(0.0087890625,0,0,0.0087890625,128.654296875,0)" xlink:href="#I"/><use transform="matrix(0.0087890625,0,0,0.0087890625,134.8154296875,0)" xlink:href="#C"/></g><path d="M1155-1067c0 217-140 315-301 373l281 444c62 88 98 158 221 164V0c-166 1-292-2-364-90-20-24-43-55-66-94L649-645H479v422c-3 116 77 143 195 137V0H78v-86c117 6 194-21 194-137v-1014c3-115-76-146-194-139v-86h551c321 0 526 100 526 395zm-219 6c0-217-101-309-318-303H479v623h144c221 5 313-101 313-320" id="T"/><path d="M442-233C435-92 546-78 688-86V0H55v-86c123 7 195-27 195-147v-768H63v-97h187v-102c4-240 124-377 362-377 124 0 225 14 272 85 33 50 8 123-32 144-31 17-72 29-121 29-2-96-37-164-135-164-176 0-152 207-154 385h289v97H442v768" id="U"/><g id="m"><use transform="matrix(0.0087890625,0,0,0.0087890625,0,0)" xlink:href="#T"/><use transform="matrix(0.0087890625,0,0,0.0087890625,11.443359375,0)" xlink:href="#C"/><use transform="matrix(0.0087890625,0,0,0.0087890625,21.076171875,0)" xlink:href="#U"/><use transform="matrix(0.0087890625,0,0,0.0087890625,27.544921875,0)" xlink:href="#C"/><use transform="matrix(0.0087890625,0,0,0.0087890625,37.177734375,0)" xlink:href="#O"/><use transform="matrix(0.0087890625,0,0,0.0087890625,45.6591796875,0)" xlink:href="#C"/><use transform="matrix(0.0087890625,0,0,0.0087890625,55.2919921875,0)" xlink:href="#G"/><use transform="matrix(0.0087890625,0,0,0.0087890625,66.90234375,0)" xlink:href="#J"/><use transform="matrix(0.0087890625,0,0,0.0087890625,75.76171875,0)" xlink:href="#C"/></g><g id="n"><use transform="matrix(0.0087890625,0,0,0.0087890625,0,0)" xlink:href="#H"/><use transform="matrix(0.0087890625,0,0,0.0087890625,9.791015625,0)" xlink:href="#P"/><use transform="matrix(0.0087890625,0,0,0.0087890625,20.1796875,0)" xlink:href="#B"/><use transform="matrix(0.0087890625,0,0,0.0087890625,25.7607421875,0)" xlink:href="#K"/><use transform="matrix(0.0087890625,0,0,0.0087890625,37.1865234375,0)" xlink:href="#I"/><use transform="matrix(0.0087890625,0,0,0.0087890625,43.5234375,0)" xlink:href="#F"/><use transform="matrix(0.0087890625,0,0,0.0087890625,49.2802734375,0)" xlink:href="#P"/><use transform="matrix(0.0087890625,0,0,0.0087890625,59.6689453125,0)" xlink:href="#G"/></g><path d="M272-1237c3-115-76-146-194-139v-86h1032l10 358h-106c-6-145-43-256-199-256H479v592h494v100H479v435C472-96 576-78 715-86V0H78v-86c117 6 194-21 194-137v-1014" id="V"/><g id="o"><use transform="matrix(0.0087890625,0,0,0.0087890625,0,0)" xlink:href="#V"/><use transform="matrix(0.0087890625,0,0,0.0087890625,10.6171875,0)" xlink:href="#F"/><use transform="matrix(0.0087890625,0,0,0.0087890625,16.3740234375,0)" xlink:href="#G"/><use transform="matrix(0.0087890625,0,0,0.0087890625,27.984375,0)" xlink:href="#y"/><use transform="matrix(0.0087890625,0,0,0.0087890625,38.1181640625,0)" xlink:href="#B"/></g><g id="p"><use transform="matrix(0.0087890625,0,0,0.0087890625,0,0)" xlink:href="#L"/><use transform="matrix(0.0087890625,0,0,0.0087890625,11.0478515625,0)" xlink:href="#y"/><use transform="matrix(0.0087890625,0,0,0.0087890625,21.005859375,0)" xlink:href="#I"/><use transform="matrix(0.0087890625,0,0,0.0087890625,27.3427734375,0)" xlink:href="#y"/><use transform="matrix(0.0087890625,0,0,0.0087890625,37.4765625,0)" xlink:href="#x"/><use transform="matrix(0.0087890625,0,0,0.0087890625,45.59765625,0)" xlink:href="#C"/><use transform="matrix(0.0087890625,0,0,0.0087890625,55.23046875,0)" xlink:href="#I"/></g><path d="M886-871c30-101-37-149-145-141v-86h439v86c-127-12-147 70-181 160L676 0H489L160-903c-24-68-57-114-152-109v-86h512v86c-124-19-174 64-133 174 84 228 172 444 229 695h7c82-248 190-477 263-728" id="W"/><g id="q"><use transform="matrix(0.0087890625,0,0,0.0087890625,0,0)" xlink:href="#L"/><use transform="matrix(0.0087890625,0,0,0.0087890625,11.0478515625,0)" xlink:href="#y"/><use transform="matrix(0.0087890625,0,0,0.0087890625,21.005859375,0)" xlink:href="#I"/><use transform="matrix(0.0087890625,0,0,0.0087890625,27.3427734375,0)" xlink:href="#y"/><use transform="matrix(0.0087890625,0,0,0.0087890625,37.4765625,0)" xlink:href="#x"/><use transform="matrix(0.0087890625,0,0,0.0087890625,45.59765625,0)" xlink:href="#C"/><use transform="matrix(0.0087890625,0,0,0.0087890625,55.23046875,0)" xlink:href="#I"/><use transform="matrix(0.0087890625,0,0,0.0087890625,61.5673828125,0)" xlink:href="#w"/><use transform="matrix(0.0087890625,0,0,0.0087890625,69.8291015625,0)" xlink:href="#L"/><use transform="matrix(0.0087890625,0,0,0.0087890625,80.876953125,0)" xlink:href="#C"/><use transform="matrix(0.0087890625,0,0,0.0087890625,90.509765625,0)" xlink:href="#O"/><use transform="matrix(0.0087890625,0,0,0.0087890625,98.9912109375,0)" xlink:href="#F"/><use transform="matrix(0.0087890625,0,0,0.0087890625,104.3876953125,0)" xlink:href="#W"/><use transform="matrix(0.0087890625,0,0,0.0087890625,114.6357421875,0)" xlink:href="#C"/></g><path d="M322-226C292-111 376-75 500-86V0H0v-86c136 16 160-66 195-160l454-1216h160l463 1267c24 75 65 118 172 109V0H881v-86c113 10 195-27 165-133-27-93-63-180-94-270H414c-30 88-68 171-92 263zm593-366c-76-225-168-445-229-682-56 246-156 455-233 682h462" id="X"/><g id="r"><use transform="matrix(0.008789062499999997,0,0,0.008789062499999997,0,0)" xlink:href="#X"/><use transform="matrix(0.008789062499999997,0,0,0.008789062499999997,12.691406249999995,0)" xlink:href="#G"/></g><path d="M569-1012c-63 1-123 4-123 60 0 43 23 60 48 94l135 184c47-72 105-140 143-219 9-21 14-40 14-59 0-56-58-59-116-60v-86h448v86c-127-7-170 57-225 131L682-600l301 405c54 66 89 110 191 109V0H645v-86c110 6 163-43 118-118-57-95-135-185-200-275-60 87-128 167-180 261-10 19-18 42-18 68 0 62 57 62 133 64V0H10v-86c134 8 184-56 242-131l258-334-258-352c-56-60-97-113-203-109v-86h520v86" id="Y"/><g id="s"><use transform="matrix(0.008789062499999997,0,0,0.008789062499999997,0,0)" xlink:href="#C"/><use transform="matrix(0.008789062499999997,0,0,0.008789062499999997,9.632812499999996,0)" xlink:href="#Y"/><use transform="matrix(0.008789062499999997,0,0,0.008789062499999997,19.485351562499993,0)" xlink:href="#y"/><use transform="matrix(0.008789062499999997,0,0,0.008789062499999997,29.61914062499999,0)" xlink:href="#z"/><use transform="matrix(0.008789062499999997,0,0,0.008789062499999997,46.45019531249999,0)" xlink:href="#A"/><use transform="matrix(0.008789062499999997,0,0,0.008789062499999997,57.498046874999986,0)" xlink:href="#B"/><use transform="matrix(0.008789062499999997,0,0,0.008789062499999997,63.079101562499986,0)" xlink:href="#C"/></g><g id="t"><use transform="matrix(0.008789062499999997,0,0,0.008789062499999997,0,0)" xlink:href="#L"/><use transform="matrix(0.008789062499999997,0,0,0.008789062499999997,11.047851562499996,0)" xlink:href="#y"/><use transform="matrix(0.008789062499999997,0,0,0.008789062499999997,21.005859374999993,0)" xlink:href="#I"/><use transform="matrix(0.008789062499999997,0,0,0.008789062499999997,27.34277343749999,0)" xlink:href="#y"/><use transform="matrix(0.008789062499999997,0,0,0.008789062499999997,37.476562499999986,0)" xlink:href="#x"/><use transform="matrix(0.008789062499999997,0,0,0.008789062499999997,45.59765624999998,0)" xlink:href="#C"/><use transform="matrix(0.008789062499999997,0,0,0.008789062499999997,55.230468749999986,0)" xlink:href="#I"/></g><g id="u"><use transform="matrix(0.008789062499999997,0,0,0.008789062499999997,0,0)" xlink:href="#A"/><use transform="matrix(0.008789062499999997,0,0,0.008789062499999997,11.047851562499996,0)" xlink:href="#F"/><use transform="matrix(0.008789062499999997,0,0,0.008789062499999997,16.804687499999993,0)" xlink:href="#A"/><use transform="matrix(0.008789062499999997,0,0,0.008789062499999997,27.85253906249999,0)" xlink:href="#C"/><use transform="matrix(0.008789062499999997,0,0,0.008789062499999997,37.485351562499986,0)" xlink:href="#B"/><use transform="matrix(0.008789062499999997,0,0,0.008789062499999997,43.066406249999986,0)" xlink:href="#F"/><use transform="matrix(0.008789062499999997,0,0,0.008789062499999997,48.823242187499986,0)" xlink:href="#G"/><use transform="matrix(0.008789062499999997,0,0,0.008789062499999997,60.43359374999998,0)" xlink:href="#C"/></g></defs></g></svg>