<svg xmlns="http://www.w3.org/2000/svg" xmlns:xlink="http://www.w3.org/1999/xlink" xmlns:lucid="lucid" width="500" height="230"><g transform="translate(-360 -420)" lucid:page-tab-id="rY91ycIp37eV"><path d="M520 620c0 5.52-31.34 10-70 10s-70-4.48-70-10v-80c0-5.52 31.34-10 70-10s70 4.48 70 10z" stroke="#000" stroke-width="2" fill="#c1e4f7"/><path d="M520 540c0 5.52-31.34 10-70 10s-70-4.48-70-10" stroke="#000" stroke-width="2" fill="none"/><use xlink:href="#a" transform="matrix(1,0,0,1,385,555) translate(33.19677734375 40.7705078125)"/><path d="M540 440h140v80H540z" stroke="#000" stroke-width="2" fill="#ffbbb1"/><use xlink:href="#b" transform="matrix(1,0,0,1,545,445) translate(27.65087890625 40.7705078125)"/><path d="M840 620c0 5.52-31.34 10-70 10s-70-4.48-70-10v-80c0-5.52 31.34-10 70-10s70 4.48 70 10z" stroke="#000" stroke-width="2" fill="#99d2f2"/><path d="M840 540c0 5.52-31.34 10-70 10s-70-4.48-70-10" stroke="#000" stroke-width="2" fill="none"/><use xlink:href="#a" transform="matrix(1,0,0,1,705,555) translate(33.19677734375 40.7705078125)"/><path d="M522 580h158.5" stroke="#000" stroke-width="2" fill="none"/><path d="M522.03 581H521v-2h1.03z"/><path d="M695.76 580l-14.26 4.64v-9.28z" stroke="#000" stroke-width="2"/><path d="M610 522v58h70.5" stroke="#000" stroke-width="2" fill="none"/><path d="M611 522.03h-2V521h2z"/><path d="M695.76 580l-14.26 4.64v-9.28z" stroke="#000" stroke-width="2"/><defs><path d="M705-1462c450 9 667 274 667 729S1160 0 705 0H78v-86c122 7 194-27 194-147v-1004c3-115-76-146-194-139v-86h627zm440 729c2-374-134-623-486-627H479v1256h178c362-7 486-260 488-629" id="c"/><path d="M467-106c176 0 267-107 272-285v-166c-189 6-378 9-423 154-10 31-15 66-15 106 0 123 47 191 166 191zm272-535c5-199 13-375-190-375-142 0-190 83-187 223-106-2-174-27-174-129 0-169 191-191 369-196 250-7 375 104 375 354v531c-3 100 32 153 133 147V0H788l-32-176h-17C664-76 596 23 420 20 213 16 102-97 102-307c0-109 41-186 116-242 100-75 325-89 521-92" id="d"/><path d="M387-291c-2 124 47 200 156 203 51 1 88-6 131-14v90C626 8 560 18 492 20 278 25 195-83 195-297v-684H39v-82c170-8 224-133 254-287h94v252h268v117H387v690" id="e"/><path d="M834-301C834-70 665 20 430 20 250 20 92-26 92-197c0-88 47-135 129-141 1 157 63 257 221 260 156 3 257-97 214-252-47-85-142-109-240-157-153-75-310-122-310-340 0-212 169-289 386-289 130 0 232 36 280 116 31 53 24 126-20 162-26 22-62 33-109 33 0-130-49-217-176-217-120 1-195 48-195 164 0 149 143 163 254 217 154 74 308 124 308 340" id="f"/><path d="M786-645c-4-191-36-363-223-363-76 0-134 30-175 92s-66 152-73 271h471zm123 393c43 21 51 90 17 136C862-29 744 20 588 20c-331 0-471-225-475-561-4-348 134-577 454-577 327 0 443 231 426 583H311c7 242 67 426 305 426 140 0 234-60 293-143" id="g"/><g id="a"><use transform="matrix(0.0087890625,0,0,0.0087890625,0,0)" xlink:href="#c"/><use transform="matrix(0.0087890625,0,0,0.0087890625,13.0869140625,0)" xlink:href="#d"/><use transform="matrix(0.0087890625,0,0,0.0087890625,23.044921875,0)" xlink:href="#e"/><use transform="matrix(0.0087890625,0,0,0.0087890625,29.3818359375,0)" xlink:href="#d"/><use transform="matrix(0.0087890625,0,0,0.0087890625,39.515625,0)" xlink:href="#f"/><use transform="matrix(0.0087890625,0,0,0.0087890625,47.63671875,0)" xlink:href="#g"/><use transform="matrix(0.0087890625,0,0,0.0087890625,57.26953125,0)" xlink:href="#e"/></g><path d="M479-223C473-90 582-80 715-86V0H78v-86c122 7 194-27 194-147v-1004c3-115-76-146-194-139v-86h575c309 2 504 125 504 428 0 321-213 462-549 465H479v346zm457-803c0-225-92-342-318-338H479v698h109c246 7 348-114 348-360" id="h"/><path d="M434-223C430-95 529-79 659-86V0H68v-86c112 4 174-35 174-147v-639c2-108-66-143-174-140v-86h315l39 203h10c50-120 106-223 281-223 151 0 257 68 211 208-21 64-90 87-181 87-2-101-16-160-108-160-128 0-157 140-183 255-33 148-12 333-18 505" id="i"/><path d="M594-1118c338 0 472 222 475 567 2 360-143 571-481 571S115-205 113-551c-2-359 142-567 481-567zm-4 108c-241 0-279 212-279 459 0 249 39 465 281 465s278-216 278-465c0-248-38-459-280-459" id="j"/><path d="M956-1161c125-12 164 158 62 205-14 6-30 8-49 8 9-84-106-83-156-45 48 62 81 134 80 248-2 265-188 381-475 346-48 26-98 54-99 125-1 68 58 77 127 77h232c215 1 338 97 338 306 0 294-237 379-543 383-249 3-426-81-426-299C47 28 162-41 303-70c-62-29-113-79-113-168 0-105 57-142 134-192-112-50-185-152-185-309 0-249 134-379 385-379 97 0 179 25 234 67 49-50 103-100 198-110zM438-14c-139-3-225 52-225 194 0 158 102 212 264 211 212-1 363-46 371-248C856-58 624-10 438-14zm78-1004c-150 0-184 109-184 273 0 159 39 250 186 253 149 3 184-105 182-256-2-165-33-270-184-270" id="k"/><path d="M434-223c-3 108 66 141 174 137V0H57v-86c121 8 185-28 185-147v-639c3-106-58-144-164-140v-86h321l27 166h10c60-112 141-188 309-186 158 2 252 69 297 186h17c61-114 150-188 321-186 240 3 333 155 334 401v484c-3 110 54 152 164 147V0h-356v-707c0-166-49-282-215-280-172 2-228 132-228 305v449c-3 110 54 152 164 147V0H887v-707c0-166-49-282-215-280-182 3-238 148-238 332v432" id="l"/><g id="b"><use transform="matrix(0.0087890625,0,0,0.0087890625,0,0)" xlink:href="#h"/><use transform="matrix(0.0087890625,0,0,0.0087890625,10.8720703125,0)" xlink:href="#i"/><use transform="matrix(0.0087890625,0,0,0.0087890625,19.177734375,0)" xlink:href="#j"/><use transform="matrix(0.0087890625,0,0,0.0087890625,29.390625,0)" xlink:href="#k"/><use transform="matrix(0.0087890625,0,0,0.0087890625,39.076171875,0)" xlink:href="#i"/><use transform="matrix(0.0087890625,0,0,0.0087890625,47.5576171875,0)" xlink:href="#d"/><use transform="matrix(0.0087890625,0,0,0.0087890625,57.69140625,0)" xlink:href="#l"/></g></defs></g></svg>