<svg xmlns="http://www.w3.org/2000/svg" xmlns:xlink="http://www.w3.org/1999/xlink" xmlns:lucid="lucid" width="1160" height="500"><g transform="translate(-140 -319.99999999999994)" lucid:page-tab-id="2X91rSeqy3aH"><path d="M160 340h1120v460H160z" fill-opacity="0"/><path d="M160 740h1120v60H160z" stroke="#000" stroke-opacity="0" stroke-width="2" fill="#fff" fill-opacity="0"/><use xlink:href="#a" transform="matrix(1,0,0,1,165,745) translate(493.04150390625 32.33300781249999)"/><path d="M476 360h164l-16 60H460z" stroke="#000" stroke-width="2" fill="#e5e5e5"/><use xlink:href="#b" transform="matrix(1,0,0,1,465,365) translate(61.84142578125 32.3330078125)"/><use xlink:href="#c" transform="matrix(1,0,0,1,465,365) translate(98.10509765625 32.3330078125)"/><path d="M960 590c0 5.52-31.34 10-70 10s-70-4.48-70-10v-80c0-5.52 31.34-10 70-10s70 4.48 70 10z" stroke="#000" stroke-width="2" fill="#99d2f2"/><path d="M960 510c0 5.52-31.34 10-70 10s-70-4.48-70-10" stroke="#000" stroke-width="2" fill="none"/><use xlink:href="#d" transform="matrix(1,0,0,1,825,525) translate(33.19677734375 40.7705078125)"/><path d="M476 440h164l-16 60H460z" stroke="#000" stroke-width="2" fill="#e5e5e5"/><use xlink:href="#b" transform="matrix(1,0,0,1,465,445) translate(61.84142578125 32.3330078125)"/><use xlink:href="#e" transform="matrix(1,0,0,1,465,445) translate(98.10509765625 32.3330078125)"/><path d="M634.03 390H720v160h80.5" stroke="#000" stroke-width="2" fill="none"/><path d="M634.06 391h-1.3l.54-2h.76z"/><path d="M815.76 550l-14.26 4.64v-9.28z" stroke="#000" stroke-width="2"/><path d="M634.03 470H720v80h80.5" stroke="#000" stroke-width="2" fill="none"/><path d="M634.06 471h-1.3l.54-2h.76z"/><path d="M815.76 550l-14.26 4.64v-9.28z" stroke="#000" stroke-width="2"/><path d="M620 610c0 5.52-31.34 10-70 10s-70-4.48-70-10v-80c0-5.52 31.34-10 70-10s70 4.48 70 10z" stroke="#000" stroke-width="2" fill="#c1e4f7"/><path d="M620 530c0 5.52-31.34 10-70 10s-70-4.48-70-10" stroke="#000" stroke-width="2" fill="none"/><use xlink:href="#f" transform="matrix(1,0,0,1,485,545) translate(25.8271484375 40.7705078125)"/><use xlink:href="#c" transform="matrix(1,0,0,1,485,545) translate(94.109375 40.7705078125)"/><path d="M620 730c0 5.52-31.34 10-70 10s-70-4.48-70-10v-80c0-5.52 31.34-10 70-10s70 4.48 70 10z" stroke="#000" stroke-width="2" fill="#c1e4f7"/><path d="M620 650c0 5.52-31.34 10-70 10s-70-4.48-70-10" stroke="#000" stroke-width="2" fill="none"/><use xlink:href="#f" transform="matrix(1,0,0,1,485,665) translate(25.8271484375 40.7705078125)"/><use xlink:href="#e" transform="matrix(1,0,0,1,485,665) translate(94.109375 40.7705078125)"/><path d="M622 570h98v-20h80.5" stroke="#000" stroke-width="2" fill="none"/><path d="M622.03 571H621v-2h1.03z"/><path d="M815.76 550l-14.26 4.64v-9.28z" stroke="#000" stroke-width="2"/><path d="M622 690h98V550h80.5" stroke="#000" stroke-width="2" fill="none"/><path d="M622.03 691H621v-2h1.03z"/><path d="M815.76 550l-14.26 4.64v-9.28z" stroke="#000" stroke-width="2"/><defs><path d="M844-1331c2-112-71-145-185-139v-86h377v1331c-2 112 71 145 185 139V0H874l-22-184h-8C786-68 701 20 530 20c-321 0-417-237-417-567 0-331 95-571 417-571 163 0 254 76 314 180h12c-10-128-14-255-12-393zM563-987c-219 0-252 212-252 442 0 145 20 254 59 326s104 108 195 108c242 2 279-192 279-436s-41-440-281-440" id="g"/><path d="M467-106c176 0 267-107 272-285v-166c-189 6-378 9-423 154-10 31-15 66-15 106 0 123 47 191 166 191zm272-535c5-199 13-375-190-375-142 0-190 83-187 223-106-2-174-27-174-129 0-169 191-191 369-196 250-7 375 104 375 354v531c-3 100 32 153 133 147V0H788l-32-176h-17C664-76 596 23 420 20 213 16 102-97 102-307c0-109 41-186 116-242 100-75 325-89 521-92" id="h"/><path d="M387-291c-2 124 47 200 156 203 51 1 88-6 131-14v90C626 8 560 18 492 20 278 25 195-83 195-297v-684H39v-82c170-8 224-133 254-287h94v252h268v117H387v690" id="i"/><path d="M834-301C834-70 665 20 430 20 250 20 92-26 92-197c0-88 47-135 129-141 1 157 63 257 221 260 156 3 257-97 214-252-47-85-142-109-240-157-153-75-310-122-310-340 0-212 169-289 386-289 130 0 232 36 280 116 31 53 24 126-20 162-26 22-62 33-109 33 0-130-49-217-176-217-120 1-195 48-195 164 0 149 143 163 254 217 154 74 308 124 308 340" id="j"/><path d="M786-645c-4-191-36-363-223-363-76 0-134 30-175 92s-66 152-73 271h471zm123 393c43 21 51 90 17 136C862-29 744 20 588 20c-331 0-471-225-475-561-4-348 134-577 454-577 327 0 443 231 426 583H311c7 242 67 426 305 426 140 0 234-60 293-143" id="k"/><path d="M950 291H-10V170h960v121" id="l"/><path d="M434-223c-3 108 66 141 174 137V0H57v-86c121 8 185-28 185-147v-639c3-106-58-144-164-140v-86h321l27 166h10c60-112 141-188 309-186 158 2 252 69 297 186h17c61-114 150-188 321-186 240 3 333 155 334 401v484c-3 110 54 152 164 147V0h-356v-707c0-166-49-282-215-280-172 2-228 132-228 305v449c-3 110 54 152 164 147V0H887v-707c0-166-49-282-215-280-182 3-238 148-238 332v432" id="m"/><path d="M434-223C430-95 529-79 659-86V0H68v-86c112 4 174-35 174-147v-639c2-108-66-143-174-140v-86h315l39 203h10c50-120 106-223 281-223 151 0 257 68 211 208-21 64-90 87-181 87-2-101-16-160-108-160-128 0-157 140-183 255-33 148-12 333-18 505" id="n"/><path d="M956-1161c125-12 164 158 62 205-14 6-30 8-49 8 9-84-106-83-156-45 48 62 81 134 80 248-2 265-188 381-475 346-48 26-98 54-99 125-1 68 58 77 127 77h232c215 1 338 97 338 306 0 294-237 379-543 383-249 3-426-81-426-299C47 28 162-41 303-70c-62-29-113-79-113-168 0-105 57-142 134-192-112-50-185-152-185-309 0-249 134-379 385-379 97 0 179 25 234 67 49-50 103-100 198-110zM438-14c-139-3-225 52-225 194 0 158 102 212 264 211 212-1 363-46 371-248C856-58 624-10 438-14zm78-1004c-150 0-184 109-184 273 0 159 39 250 186 253 149 3 184-105 182-256-2-165-33-270-184-270" id="o"/><g id="a"><use transform="matrix(0.008789062499999997,0,0,0.008789062499999997,0,0)" xlink:href="#g"/><use transform="matrix(0.008789062499999997,0,0,0.008789062499999997,11.047851562499996,0)" xlink:href="#h"/><use transform="matrix(0.008789062499999997,0,0,0.008789062499999997,21.005859374999993,0)" xlink:href="#i"/><use transform="matrix(0.008789062499999997,0,0,0.008789062499999997,27.34277343749999,0)" xlink:href="#h"/><use transform="matrix(0.008789062499999997,0,0,0.008789062499999997,37.476562499999986,0)" xlink:href="#j"/><use transform="matrix(0.008789062499999997,0,0,0.008789062499999997,45.59765624999998,0)" xlink:href="#k"/><use transform="matrix(0.008789062499999997,0,0,0.008789062499999997,55.230468749999986,0)" xlink:href="#i"/><use transform="matrix(0.008789062499999997,0,0,0.008789062499999997,61.567382812499986,0)" xlink:href="#l"/><use transform="matrix(0.008789062499999997,0,0,0.008789062499999997,69.82910156249999,0)" xlink:href="#m"/><use transform="matrix(0.008789062499999997,0,0,0.008789062499999997,86.83593749999997,0)" xlink:href="#k"/><use transform="matrix(0.008789062499999997,0,0,0.008789062499999997,96.46874999999997,0)" xlink:href="#n"/><use transform="matrix(0.008789062499999997,0,0,0.008789062499999997,104.77441406249997,0)" xlink:href="#o"/><use transform="matrix(0.008789062499999997,0,0,0.008789062499999997,114.28417968749997,0)" xlink:href="#k"/></g><path d="M272-1237c3-115-76-146-194-139v-86h1032l10 358h-106c-6-145-43-256-199-256H479v592h494v100H479v435C472-96 576-78 715-86V0H78v-86c117 6 194-21 194-137v-1014" id="p"/><path d="M434-233c-3 120 73 154 195 147V0H47v-86c118 6 195-21 195-137v-649c2-108-66-143-174-140v-86h366v865zM330-1303c-79 0-117-45-117-127s37-126 117-126c79 0 116 46 116 126 0 81-37 127-116 127" id="q"/><path d="M414-233c-4 120 72 154 194 147V0H27v-86c122 7 194-28 194-147v-1098c3-115-76-146-194-139v-86h387v1323" id="r"/><g id="b"><use transform="matrix(0.0087890625,0,0,0.0087890625,0,0)" xlink:href="#p"/><use transform="matrix(0.0087890625,0,0,0.0087890625,10.6171875,0)" xlink:href="#q"/><use transform="matrix(0.0087890625,0,0,0.0087890625,16.3740234375,0)" xlink:href="#r"/><use transform="matrix(0.0087890625,0,0,0.0087890625,21.955078125,0)" xlink:href="#k"/></g><path d="M709-233C699-82 828-79 977-86V0H197v-86h137c108 3 168-38 168-147v-1076c-64 75-120 150-204 197-78 44-169-10-163-94 181-48 304-168 443-264h131v1237" id="s"/><use transform="matrix(0.0087890625,0,0,0.0087890625,0,0)" xlink:href="#s" id="c"/><path d="M705-1462c450 9 667 274 667 729S1160 0 705 0H78v-86c122 7 194-27 194-147v-1004c3-115-76-146-194-139v-86h627zm440 729c2-374-134-623-486-627H479v1256h178c362-7 486-260 488-629" id="t"/><g id="d"><use transform="matrix(0.0087890625,0,0,0.0087890625,0,0)" xlink:href="#t"/><use transform="matrix(0.0087890625,0,0,0.0087890625,13.0869140625,0)" xlink:href="#h"/><use transform="matrix(0.0087890625,0,0,0.0087890625,23.044921875,0)" xlink:href="#i"/><use transform="matrix(0.0087890625,0,0,0.0087890625,29.3818359375,0)" xlink:href="#h"/><use transform="matrix(0.0087890625,0,0,0.0087890625,39.515625,0)" xlink:href="#j"/><use transform="matrix(0.0087890625,0,0,0.0087890625,47.63671875,0)" xlink:href="#k"/><use transform="matrix(0.0087890625,0,0,0.0087890625,57.26953125,0)" xlink:href="#i"/></g><path d="M528-1483c243 0 416 104 416 342 0 196-101 308-198 428-150 186-330 369-490 549h473c127 2 162-84 180-190h86L985 0H104v-150c155-184 338-374 480-565 86-116 153-219 153-405 0-153-57-260-209-260-177 0-225 129-225 305-102 0-176-31-176-133 0-206 182-275 401-275" id="u"/><use transform="matrix(0.0087890625,0,0,0.0087890625,0,0)" xlink:href="#u" id="e"/><g id="f"><use transform="matrix(0.0087890625,0,0,0.0087890625,0,0)" xlink:href="#t"/><use transform="matrix(0.0087890625,0,0,0.0087890625,13.0869140625,0)" xlink:href="#h"/><use transform="matrix(0.0087890625,0,0,0.0087890625,23.044921875,0)" xlink:href="#i"/><use transform="matrix(0.0087890625,0,0,0.0087890625,29.3818359375,0)" xlink:href="#h"/><use transform="matrix(0.0087890625,0,0,0.0087890625,39.515625,0)" xlink:href="#j"/><use transform="matrix(0.0087890625,0,0,0.0087890625,47.63671875,0)" xlink:href="#k"/><use transform="matrix(0.0087890625,0,0,0.0087890625,57.26953125,0)" xlink:href="#i"/></g></defs></g></svg>